<?xml version="1.0" encoding="utf-8"?>
<!-- Generator: Adobe Illustrator 15.0.0, SVG Export Plug-In . SVG Version: 6.00 Build 0)  -->
<!DOCTYPE svg PUBLIC "-//W3C//DTD SVG 1.1//EN" "http://www.w3.org/Graphics/SVG/1.1/DTD/svg11.dtd">
<svg version="1.1" id="Layer_1" xmlns="http://www.w3.org/2000/svg" xmlns:xlink="http://www.w3.org/1999/xlink" x="0px" y="0px"
	 width="340.364px" height="119.922px" viewBox="0 0 340.364 119.922" enable-background="new 0 0 340.364 119.922"
	 xml:space="preserve">
<g>
	<g>
		<path fill="none" d="M224.338,24.292c0-10.738-9.476-16.533-18.392-16.533c-11.012,0-18.703,6.67-18.703,16.221
			c0,6.679,4.457,12.542,15.196,26.415c0.6-0.407,1.366-0.926,1.366-0.926C212.473,43.628,224.338,35.634,224.338,24.292z"/>
		<path fill="none" d="M201.217,57.132c-0.753,0.471-1.844,1.152-1.844,1.152c-11.949,7.438-25.478,15.857-25.478,31.353
			c0,15.334,13.859,23.357,27.55,23.357c16.081,0,24.771-10.122,29.27-18.841C227.414,90.009,204.892,61.745,201.217,57.132z"/>
		<path fill="#BBD043" d="M236.573,93.631c2.162-4.842,4.159-10.475,4.489-18.566l0.039-0.944h-5.092l-0.035,0.87
			c-0.24,5.885-1.647,10.723-2.982,14.068c-4.534-5.739-23.832-30.169-27.459-34.761c1.213-0.866,3.408-2.435,3.408-2.435
			c9.619-6.764,20.522-14.429,20.522-27.571c0-12.75-9.736-21.654-23.676-21.654c-11.398,0-23.667,6.776-23.667,21.654
			c0,8.394,6.405,16.486,12.048,23.613c0,0,2.698,3.525,3.936,5.142c-13.17,8.207-29.332,18.448-29.332,36.59
			c0,17.828,16.613,28.482,32.673,28.482c17.346,0,27.224-10.272,32.571-19.388c2.979,3.782,12.887,16.362,12.887,16.362l0.27,0.342
			l6.646,0.043L236.573,93.631z M202.44,50.395c-10.739-13.873-15.196-19.735-15.196-26.415c0-9.551,7.691-16.221,18.703-16.221
			c8.916,0,18.392,5.794,18.392,16.533c0,11.342-11.865,19.336-20.532,25.177C203.806,49.469,203.04,49.988,202.44,50.395z
			 M201.446,112.994c-13.69,0-27.55-8.023-27.55-23.357c0-15.495,13.528-23.915,25.478-31.353c0,0,1.091-0.681,1.844-1.152
			c3.675,4.613,26.196,32.877,29.498,37.021C226.216,102.872,217.527,112.994,201.446,112.994z"/>
	</g>
	<g>
		<path fill="none" d="M4.502,15.674v10.149H15.78v-9.732c0-2.352-0.687-4.329-1.933-5.567C12.86,9.546,11.519,9.05,9.863,9.05
			L9.791,8.143L9.799,9.05C6.086,9.084,4.502,11.065,4.502,15.674z"/>
		<path fill="none" d="M17.17,64.455c-8.128,0.077-13.38,4.586-13.38,11.489c0,6.902,5.254,11.417,13.385,11.501
			c8.121-0.084,13.379-4.599,13.379-11.501C30.555,69.041,25.301,64.532,17.17,64.455z"/>
		<path d="M100.467,108.361C98.175,103.01,89.24,82.609,54.401,3.242l-0.235-0.536l-6.822-0.078v112.851h5.124V11.488
			c3.343,7.707,13.647,31.171,45.404,103.388l0.234,0.532l4.368,0.075l0.232-0.15c0.319-0.205,0.319-0.201,45.836-103.705v103.851
			h5.124V2.638h-6.792L100.467,108.361z"/>
		<path d="M306.152,56.549l-4.443-1.115c-0.108-0.024-5.235-1.208-5.245-1.21c-16.534-3.75-32.152-7.291-32.152-24.657
			c0-22.684,25.839-24.446,33.759-24.446c22.547,0,34.322,9.96,35.001,29.689l0.019,0.889h5.136l-0.038-1.055
			C337.183,11.656,323.686,0,298.07,0c-9.121,0-38.882,2.132-38.882,29.568c0,21.439,17.944,25.554,35.298,29.534l8.898,2.049
			c15.66,3.481,31.854,7.081,31.854,26.003c0,17.851-17.579,25.841-35.001,25.841c-26.004,0-39.188-11.88-39.188-35.31l0.063-3.558
			h-5.085l-0.1,3.54c-0.205,12.149,3.128,21.804,9.907,28.692c7.563,7.693,19.459,11.76,34.402,11.76
			c19.973,0,40.126-9.527,40.126-30.811C340.364,65.068,325.269,61.31,306.152,56.549z"/>
		<path d="M17.646,101.134L0.827,89.361l-0.07,1.654l-0.043,2.871L1.1,94.157c0,0,11.302,7.93,14.969,10.501
			c-3.665,2.564-14.951,10.455-14.951,10.455l-0.381,0.266l-0.061,4.543l2.315-1.475c0.648-0.453,14.958-10.461,17.003-11.895
			l13.636,0.004v-3.789h-13.7C19.487,102.427,18.806,101.945,17.646,101.134z"/>
		<path d="M17.17,60.664C8.624,60.664,0,65.389,0,75.944c0,10.559,8.624,15.284,17.17,15.284c8.548,0,17.173-4.726,17.173-15.284
			C34.343,65.389,25.718,60.664,17.17,60.664z M30.555,75.944c0,6.902-5.259,11.417-13.379,11.501
			C9.044,87.361,3.791,82.847,3.791,75.944c0-6.903,5.252-11.412,13.38-11.489C25.301,64.532,30.555,69.041,30.555,75.944z"/>
		<path d="M20.992,32.531H0.714v3.789h20.278c6.524,0,9.563,2.759,9.563,8.682c0,5.923-3.039,8.682-9.563,8.682H0.714v3.79h20.278
			c8.61,0,13.352-4.429,13.352-12.472C34.343,36.959,29.602,32.531,20.992,32.531z"/>
		<path d="M33.63,25.823H19.569V16.01c0-5.849,1.917-6.459,6.292-6.459c1.503,0,5.18-0.072,6.846-0.736l0.889-0.359l0.083-4.555
			l-2.304,1.37c-0.355,0.176-2.46,0.489-5.388,0.489c-3.879,0-6.864,0.612-8.515,3.317c-1.63-2.48-4.199-3.822-7.407-3.822
			L9.824,5.26c-6.045,0.146-9.11,3.719-9.11,10.62v13.733H33.63V25.823z M9.863,9.05c1.656,0,2.997,0.496,3.985,1.474
			c1.246,1.238,1.933,3.215,1.933,5.567v9.732H4.502V15.674c0-4.608,1.584-6.589,5.297-6.624L9.791,8.143L9.863,9.05z"/>
	</g>
</g>
</svg>
