<?xml version="1.0" encoding="utf-8"?>
<!-- Generator: Adobe Illustrator 16.0.0, SVG Export Plug-In . SVG Version: 6.00 Build 0)  -->
<svg version="1.2" baseProfile="tiny" id="Layer_1" xmlns="http://www.w3.org/2000/svg" xmlns:xlink="http://www.w3.org/1999/xlink"
	 x="0px" y="0px"   viewBox="0 0 1000 1000" xml:space="preserve">
<g>
	<g>
		<path fill="#1D1D1B" d="M261.638,699.484h43.976v8.924h-35.053v20.395h31.866v8.922h-31.229v22.307h36.966v8.922h-45.888v-69.469
			H261.638z"/>
		<path fill="#1D1D1B" d="M375.72,715.418l-8.285,3.186c-2.549-7.01-8.922-11.471-16.57-11.471c-8.285,0-13.384,4.461-13.384,10.834
			c0,15.934,38.877,7.012,38.877,31.867c0,11.473-10.197,20.395-24.855,20.395c-12.747,0-21.669-5.736-26.769-16.57l7.648-4.461
			c3.187,6.373,8.285,12.746,19.758,12.746c10.196,0,15.295-5.1,15.295-12.109c0-14.658-38.877-7.648-38.877-31.23
			c0-14.656,12.746-19.756,22.307-19.756C361.699,698.848,372.533,703.309,375.72,715.418z"/>
		<path fill="#1D1D1B" d="M390.379,699.484h54.174v8.924h-22.307v60.545h-8.923v-60.545h-22.307v-8.924H390.379z"/>
		<path fill="#1D1D1B" d="M467.496,763.855c0,3.188-2.55,5.736-5.736,5.736s-5.736-2.549-5.736-5.736
			c0-3.186,2.55-5.736,5.736-5.736C465.584,757.482,467.496,760.67,467.496,763.855z"/>
		<path fill="#1D1D1B" d="M519.758,699.484h17.845v69.469h-8.923V707.77h-8.922V699.484z"/>
		<path fill="#1D1D1B" d="M608.346,717.33c0,7.01-3.187,12.109-9.56,15.297c6.373,3.186,11.472,8.285,11.472,15.934
			c0,12.109-8.923,20.393-24.218,20.393c-15.296,0-24.219-8.283-24.219-20.393c0-8.285,5.099-13.385,11.472-15.934
			c-5.735-3.188-9.561-8.287-9.561-15.297c0-12.109,10.198-18.482,22.308-18.482C598.786,698.848,608.346,705.221,608.346,717.33z
			 M601.335,749.197c0-8.285-7.01-12.748-15.295-12.748c-8.286,0-15.296,4.463-15.296,12.748c0,8.922,7.01,12.746,15.296,12.746
			C594.962,761.943,601.335,757.482,601.335,749.197z M600.062,717.967c0-7.01-5.1-11.471-13.385-11.471
			c-8.923,0-13.384,4.461-13.384,11.471c0,7.012,6.373,10.836,13.384,10.836C593.05,728.803,600.062,724.979,600.062,717.967z"/>
		<path fill="#1D1D1B" d="M677.179,717.33c0,7.01-3.187,12.109-9.562,15.297c6.375,3.186,11.473,8.285,11.473,15.934
			c0,12.109-8.923,20.393-24.219,20.393s-24.218-8.283-24.218-20.393c0-8.285,5.099-13.385,11.472-15.934
			c-5.736-3.188-9.56-8.287-9.56-15.297c0-12.109,10.196-18.482,22.306-18.482S677.179,705.221,677.179,717.33z M670.167,749.197
			c0-8.285-7.647-12.748-15.296-12.748c-8.285,0-15.296,4.463-15.296,12.748c0,8.922,7.011,12.746,15.296,12.746
			C663.157,761.943,670.167,757.482,670.167,749.197z M668.256,717.967c0-7.01-5.099-11.471-13.385-11.471
			c-8.923,0-13.383,4.461-13.383,11.471c0,7.012,6.373,10.836,13.383,10.836C661.882,728.803,668.256,724.979,668.256,717.967z"/>
		<path fill="#1D1D1B" d="M728.165,752.383h-32.504v-8.922l32.504-43.977h8.923v44.613h7.647v8.285h-7.647v16.57h-8.923V752.383z
			 M728.165,744.098v-32.504l-23.582,32.504H728.165z"/>
	</g>
	<g>
		<path fill="#1D1D1B" d="M348.315,234.232v330.775h-30.593V295.417L209.376,506.373h-21.669L78.724,295.417v269.591H48.132V234.232
			h31.866l118.544,228.802l118.544-228.802H348.315z M670.167,570.105l-54.81-58.633c-19.758,31.229-47.163,54.172-91.776,54.172
			c-57.359,0-99.424-39.514-99.424-88.589c0-40.789,24.856-65.645,73.293-93.688c-27.404-27.405-42.7-50.349-42.7-77.117
			c0-39.514,33.141-70.744,73.292-70.744c42.702,0,74.568,31.229,74.568,70.744c0,38.24-29.955,63.733-59.91,82.853l68.195,74.568
			l40.152-65.645l24.219,15.296l-44.613,72.655l61.184,65.008L670.167,570.105z M516.571,404.4
			c-43.339,23.581-61.821,42.701-61.821,72.019c0,33.778,30.591,61.821,69.468,61.821c35.054,0,52.899-15.934,72.657-47.163
			L516.571,404.4z M485.341,306.251c0,18.483,12.109,34.417,39.515,63.096c31.867-18.482,49.075-38.24,49.075-63.096
			c0-24.855-16.571-43.976-45.251-43.976C501.912,262.275,485.341,282.67,485.341,306.251z M949.318,304.977l-27.404,10.197
			c-10.835-34.416-41.427-56.723-83.491-56.723c-45.25,0-75.204,22.944-75.204,61.184c0,82.216,188.649,38.878,188.649,154.872
			c0,55.449-44.613,94.326-110.896,94.326c-61.821,0-98.786-29.318-124.28-76.48l25.494-15.933
			c17.207,36.327,48.437,63.733,95.6,63.733c54.811,0,83.49-24.855,83.49-66.92c0-82.853-188.65-42.063-188.65-154.871
			c0-66.92,59.908-88.59,104.521-88.59C887.497,230.408,933.386,252.715,949.318,304.977z"/>
	</g>
</g>
</svg>
