<svg width="88" height="35" viewBox="0 0 88 35" fill="none" xmlns="http://www.w3.org/2000/svg">
  <path d="M29 33.8098H26.6V5.99982L15.27 27.7798H13.69L2.41 5.99982V33.7998H0V1.31982H2.27L14.48 24.3198L26.73 1.31982H29V33.8098Z" fill="black"/>
  <path d="M55.19 28.2402C53 32.0002 50.5 34.4602 45.9 34.4602C40.24 34.4602 36.53 31.2202 36.53 25.9202C36.53 21.8402 39.17 18.7802 43.91 15.9902C41 13.1602 39.59 11.3002 39.59 8.24023C39.59 3.74023 42.59 1.00023 46.51 1.00023C47.4413 0.964074 48.37 1.12002 49.2384 1.45835C50.1068 1.79668 50.8962 2.31016 51.5576 2.96681C52.2189 3.62346 52.738 4.40922 53.0825 5.27517C53.427 6.14113 53.5896 7.06873 53.56 8.00023C53.56 12.0802 50.5 14.4002 47.43 16.4502L54.86 24.5702L58.86 17.8402L60.62 19.0002L56.35 26.2002L61.82 32.2002L60.15 33.8202L55.19 28.2402ZM53.7 26.5702L45.44 17.6602C41.08 20.2202 38.94 22.6602 38.94 25.8802C38.94 29.8802 41.59 32.2802 45.81 32.2802C49.48 32.2802 51.57 30.0002 53.7 26.5702ZM45.9 14.9202C48.73 13.1602 51.19 11.1602 51.19 8.01023C51.2351 7.38051 51.1475 6.74834 50.9329 6.15461C50.7182 5.56089 50.3813 5.01885 49.9439 4.56357C49.5066 4.10828 48.9785 3.7499 48.3938 3.51161C47.8092 3.27331 47.1811 3.16042 46.55 3.18023C43.91 3.18023 42 5.00023 42 8.05023C42 10.5102 43.26 12.1402 45.9 14.9202Z" fill="black"/>
  <path d="M88 25.27C88 30.57 83.41 34.46 77.09 34.46C71.2 34.46 67.09 32.1 64.75 27.36L66.75 26.2C68.75 30.29 72.18 32.28 77.24 32.28C82.3 32.28 85.82 29.45 85.82 25.28C85.82 21.11 81.46 19.75 77 18.45C71.85 16.92 66.61 15.39 66.61 9.63C66.56 2.81 73 1 76.72 1C79.92 1 85.45 1.93 87.58 8L85.45 8.74C84.19 5.27 81 3.18 76.81 3.18C71.94 3.18 68.81 5.64 68.81 9.63C68.81 13.62 73.03 14.92 77.44 16.18C82.66 17.66 88 19.19 88 25.27Z" fill="black"/>
</svg>